<svg xmlns="http://www.w3.org/2000/svg" viewBox="0 0 1920 1080" width="1920" height="1080">
  <rect width="1920" height="1080" fill="#F5F0E8"/>

  <!-- Room walls -->
  <line x1="100" y1="110" x2="1820" y2="110" stroke="#1a1a1a" stroke-width="3" stroke-linecap="round"/>
  <line x1="100" y1="110" x2="100" y2="860" stroke="#1a1a1a" stroke-width="3" stroke-linecap="round"/>
  <line x1="1820" y1="110" x2="1820" y2="860" stroke="#1a1a1a" stroke-width="3" stroke-linecap="round"/>
  <line x1="100" y1="860" x2="1820" y2="860" stroke="#1a1a1a" stroke-width="3" stroke-linecap="round"/>

  <!-- Tile floor — small square tiles, barbershop classic -->
  <g stroke="#1a1a1a" stroke-width="0.8" opacity="0.25">
    <line x1="100" y1="880" x2="1820" y2="880"/>
    <line x1="100" y1="910" x2="1820" y2="910"/>
    <line x1="100" y1="940" x2="1820" y2="940"/>
    <line x1="100" y1="970" x2="1820" y2="970"/>
    <line x1="100" y1="1000" x2="1820" y2="1000"/>
    <line x1="100" y1="1030" x2="1820" y2="1030"/>
    <line x1="100" y1="1060" x2="1820" y2="1060"/>
    <line x1="160" y1="860" x2="160" y2="1080"/>
    <line x1="220" y1="860" x2="220" y2="1080"/>
    <line x1="280" y1="860" x2="280" y2="1080"/>
    <line x1="340" y1="860" x2="340" y2="1080"/>
    <line x1="400" y1="860" x2="400" y2="1080"/>
    <line x1="460" y1="860" x2="460" y2="1080"/>
    <line x1="520" y1="860" x2="520" y2="1080"/>
    <line x1="580" y1="860" x2="580" y2="1080"/>
    <line x1="640" y1="860" x2="640" y2="1080"/>
    <line x1="700" y1="860" x2="700" y2="1080"/>
    <line x1="760" y1="860" x2="760" y2="1080"/>
    <line x1="820" y1="860" x2="820" y2="1080"/>
    <line x1="880" y1="860" x2="880" y2="1080"/>
    <line x1="940" y1="860" x2="940" y2="1080"/>
    <line x1="1000" y1="860" x2="1000" y2="1080"/>
    <line x1="1060" y1="860" x2="1060" y2="1080"/>
    <line x1="1120" y1="860" x2="1120" y2="1080"/>
    <line x1="1180" y1="860" x2="1180" y2="1080"/>
    <line x1="1240" y1="860" x2="1240" y2="1080"/>
    <line x1="1300" y1="860" x2="1300" y2="1080"/>
    <line x1="1360" y1="860" x2="1360" y2="1080"/>
    <line x1="1420" y1="860" x2="1420" y2="1080"/>
    <line x1="1480" y1="860" x2="1480" y2="1080"/>
    <line x1="1540" y1="860" x2="1540" y2="1080"/>
    <line x1="1600" y1="860" x2="1600" y2="1080"/>
    <line x1="1660" y1="860" x2="1660" y2="1080"/>
    <line x1="1720" y1="860" x2="1720" y2="1080"/>
    <line x1="1780" y1="860" x2="1780" y2="1080"/>
  </g>

  <!-- BARBER POLE — near entrance, left side, vertical -->
  <!-- Pole base on floor -->
  <rect x="118" y="800" width="44" height="60" rx="3" fill="#C0BCAC" stroke="#1a1a1a" stroke-width="2"/>
  <!-- Pole shaft -->
  <rect x="128" y="320" width="24" height="480" rx="4" fill="#F5F0E8" stroke="#1a1a1a" stroke-width="2"/>
  <!-- Barber pole stripes — diagonal red/blue suggestion -->
  <g opacity="0.8">
    <!-- Diagonal stripe bands wrapping the pole — simplified as slanted fill bands -->
    <rect x="128" y="320" width="24" height="480" rx="4" fill="none" stroke="#1a1a1a" stroke-width="2"/>
    <!-- Stripe bands -->
    <path d="M128,340 L152,320 L152,345 L128,365 Z" fill="#C43A3A" stroke="none"/>
    <path d="M128,380 L152,360 L152,385 L128,405 Z" fill="#C43A3A" stroke="none"/>
    <path d="M128,420 L152,400 L152,425 L128,445 Z" fill="#C43A3A" stroke="none"/>
    <path d="M128,460 L152,440 L152,465 L128,485 Z" fill="#C43A3A" stroke="none"/>
    <path d="M128,500 L152,480 L152,505 L128,525 Z" fill="#C43A3A" stroke="none"/>
    <path d="M128,540 L152,520 L152,545 L128,565 Z" fill="#C43A3A" stroke="none"/>
    <path d="M128,580 L152,560 L152,585 L128,605 Z" fill="#C43A3A" stroke="none"/>
    <path d="M128,620 L152,600 L152,625 L128,645 Z" fill="#C43A3A" stroke="none"/>
    <path d="M128,660 L152,640 L152,665 L128,685 Z" fill="#C43A3A" stroke="none"/>
    <path d="M128,700 L152,680 L152,705 L128,725 Z" fill="#C43A3A" stroke="none"/>
    <path d="M128,740 L152,720 L152,745 L128,765 Z" fill="#C43A3A" stroke="none"/>
    <!-- Blue stripes between red -->
    <path d="M128,360 L152,340 L152,365 L128,385 Z" fill="#2A4A8A" stroke="none" opacity="0.7"/>
    <path d="M128,400 L152,380 L152,405 L128,425 Z" fill="#2A4A8A" stroke="none" opacity="0.7"/>
    <path d="M128,440 L152,420 L152,445 L128,465 Z" fill="#2A4A8A" stroke="none" opacity="0.7"/>
    <path d="M128,480 L152,460 L152,485 L128,505 Z" fill="#2A4A8A" stroke="none" opacity="0.7"/>
    <path d="M128,520 L152,500 L152,525 L128,545 Z" fill="#2A4A8A" stroke="none" opacity="0.7"/>
    <path d="M128,560 L152,540 L152,565 L128,585 Z" fill="#2A4A8A" stroke="none" opacity="0.7"/>
    <path d="M128,600 L152,580 L152,605 L128,625 Z" fill="#2A4A8A" stroke="none" opacity="0.7"/>
    <path d="M128,640 L152,620 L152,645 L128,665 Z" fill="#2A4A8A" stroke="none" opacity="0.7"/>
    <path d="M128,680 L152,660 L152,685 L128,705 Z" fill="#2A4A8A" stroke="none" opacity="0.7"/>
    <path d="M128,720 L152,700 L152,725 L128,745 Z" fill="#2A4A8A" stroke="none" opacity="0.7"/>
    <path d="M128,760 L152,740 L152,765 L128,785 Z" fill="#2A4A8A" stroke="none" opacity="0.7"/>
  </g>
  <!-- Pole top globe -->
  <ellipse cx="140" cy="318" rx="22" ry="12" fill="#D4CFC0" stroke="#1a1a1a" stroke-width="2"/>
  <ellipse cx="140" cy="308" rx="18" ry="18" fill="#F5F0E8" stroke="#1a1a1a" stroke-width="2"/>

  <!-- LARGE MIRROR — back wall center, full width -->
  <rect x="400" y="130" width="1100" height="480" fill="#E8EEF0" stroke="#1a1a1a" stroke-width="3"/>
  <!-- Mirror frame -->
  <rect x="408" y="138" width="1084" height="464" fill="#DDE5EC" stroke="#1a1a1a" stroke-width="1.5"/>
  <!-- Mirror surface sheen lines -->
  <line x1="415" y1="150" x2="445" y2="590" stroke="#F5F0E8" stroke-width="2" opacity="0.6"/>
  <line x1="440" y1="145" x2="470" y2="595" stroke="#F5F0E8" stroke-width="2" opacity="0.5"/>
  <!-- Reflection of barber chair in mirror (ghost shape) -->
  <g opacity="0.35" stroke="#1a1a1a" stroke-width="1.5">
    <!-- Reflected chair silhouette -->
    <rect x="650" y="380" width="280" height="200" rx="12" fill="#C8C3B0"/>
    <rect x="640" y="280" width="300" height="120" rx="10" fill="#D4CFC0"/>
    <rect x="630" y="188" width="320" height="100" rx="8" fill="#C8C3B0"/>
    <rect x="700" y="552" width="60" height="35"/>
    <rect x="820" y="552" width="60" height="35"/>
  </g>

  <!-- SHELF UNDER MIRROR — product bottles and radio -->
  <rect x="400" y="610" width="1100" height="24" fill="#C8C3B0" stroke="#1a1a1a" stroke-width="2.5"/>
  <!-- Hair product bottles on shelf -->
  <g stroke="#1a1a1a" stroke-width="1.5" fill="#D4CFC0">
    <rect x="430" y="558" width="28" height="50" rx="5"/>
    <path d="M430,558 Q444,543 458,558"/>
    <rect x="470" y="562" width="22" height="46" rx="4"/>
    <path d="M470,562 Q481,550 492,562"/>
    <rect x="504" y="554" width="32" height="54" rx="5"/>
    <path d="M504,554 Q520,537 536,554"/>
    <rect x="548" y="560" width="24" height="48" rx="4"/>
    <path d="M548,560 Q560,547 572,560"/>
    <rect x="585" y="556" width="28" height="52" rx="5"/>
    <path d="M585,556 Q599,541 613,556"/>
    <rect x="625" y="563" width="20" height="45" rx="3"/>
    <path d="M625,563 Q635,553 645,563"/>
    <!-- Taller bottle -->
    <rect x="655" y="546" width="26" height="62" rx="5"/>
    <path d="M655,546 Q668,528 681,546"/>
    <rect x="692" y="560" width="22" height="48" rx="4"/>
    <path d="M692,560 Q703,549 714,560"/>
    <!-- Aftershave-type bottle — bulbous -->
    <rect x="724" y="555" width="30" height="53" rx="8"/>
    <circle cx="739" cy="548" r="14" fill="#D4CFC0" stroke="#1a1a1a" stroke-width="1.5"/>
    <rect x="764" y="560" width="24" height="48" rx="4"/>
    <rect x="800" y="554" width="32" height="54" rx="5"/>
    <path d="M800,554 Q816,537 832,554"/>
    <rect x="842" y="563" width="18" height="45" rx="3"/>
    <rect x="872" y="556" width="26" height="52" rx="5"/>
    <path d="M872,556 Q885,542 898,556"/>
  </g>
  <!-- Scissors and comb on shelf -->
  <g stroke="#1a1a1a" stroke-width="2" stroke-linecap="round">
    <!-- Scissors -->
    <line x1="940" y1="562" x2="960" y2="608"/>
    <line x1="958" y1="562" x2="938" y2="608"/>
    <!-- Comb -->
    <rect x="978" y="560" width="12" height="48" fill="#C0BCAC" stroke="#1a1a1a" stroke-width="1.5"/>
    <g stroke="#1a1a1a" stroke-width="1">
      <line x1="982" y1="570" x2="982" y2="606"/>
      <line x1="986" y1="570" x2="986" y2="606"/>
      <line x1="990" y1="570" x2="990" y2="606"/>
    </g>
  </g>
  <!-- Radio on shelf right side -->
  <rect x="1050" y="548" width="110" height="60" rx="4" fill="#C8C3B0" stroke="#1a1a1a" stroke-width="2.5"/>
  <rect x="1060" y="555" width="68" height="38" rx="2" fill="#F5F0E8" stroke="#1a1a1a" stroke-width="1.5"/>
  <circle cx="1148" cy="575" r="10" fill="#F5F0E8" stroke="#1a1a1a" stroke-width="1.5"/>
  <!-- Radio speaker grille lines -->
  <g stroke="#1a1a1a" stroke-width="0.8" opacity="0.6">
    <line x1="1065" y1="562" x2="1122" y2="562"/>
    <line x1="1065" y1="568" x2="1122" y2="568"/>
    <line x1="1065" y1="574" x2="1122" y2="574"/>
    <line x1="1065" y1="580" x2="1122" y2="580"/>
    <line x1="1065" y1="586" x2="1122" y2="586"/>
  </g>

  <!-- BARBER CHAIR — center-left, the iconic piece -->
  <!-- Chair base pedestal -->
  <rect x="560" y="808" width="260" height="52" rx="6" fill="#B8B4A4" stroke="#1a1a1a" stroke-width="2.5"/>
  <!-- Pedestal column -->
  <rect x="625" y="710" width="130" height="100" rx="4" fill="#C0BCAC" stroke="#1a1a1a" stroke-width="2.5"/>
  <!-- Pump/hydraulic mechanism suggestion -->
  <rect x="650" y="755" width="80" height="16" rx="3" fill="#B0ACA0" stroke="#1a1a1a" stroke-width="2"/>
  <!-- Foot rest -->
  <rect x="540" y="780" width="300" height="32" rx="6" fill="#C4C0B0" stroke="#1a1a1a" stroke-width="2.5"/>
  <!-- Seat cushion -->
  <rect x="540" y="670" width="300" height="115" rx="12" fill="#D0CCBC" stroke="#1a1a1a" stroke-width="2.5"/>
  <!-- Seat cushion tufting lines -->
  <g stroke="#1a1a1a" stroke-width="1.5" opacity="0.5">
    <line x1="600" y1="672" x2="600" y2="785"/>
    <line x1="660" y1="672" x2="660" y2="785"/>
    <line x1="720" y1="672" x2="720" y2="785"/>
    <line x1="780" y1="672" x2="780" y2="785"/>
    <line x1="544" y1="715" x2="836" y2="715"/>
    <line x1="544" y1="750" x2="836" y2="750"/>
  </g>
  <!-- Back rest — tall, padded, angled back slightly -->
  <rect x="548" y="380" width="284" height="298" rx="14" fill="#C8C4B4" stroke="#1a1a1a" stroke-width="2.5"/>
  <!-- Back rest tufting -->
  <g stroke="#1a1a1a" stroke-width="1.5" opacity="0.4">
    <line x1="610" y1="385" x2="610" y2="675"/>
    <line x1="680" y1="385" x2="680" y2="675"/>
    <line x1="750" y1="385" x2="750" y2="675"/>
    <line x1="820" y1="385" x2="820" y2="675"/>
    <line x1="552" y1="450" x2="828" y2="450"/>
    <line x1="552" y1="520" x2="828" y2="520"/>
    <line x1="552" y1="590" x2="828" y2="590"/>
  </g>
  <!-- Head rest on top of back -->
  <rect x="596" y="330" width="188" height="58" rx="12" fill="#D0CCBC" stroke="#1a1a1a" stroke-width="2.5"/>
  <!-- Arm rests -->
  <rect x="530" y="580" width="28" height="110" rx="8" fill="#C0BCAC" stroke="#1a1a1a" stroke-width="2.5"/>
  <rect x="822" y="580" width="28" height="110" rx="8" fill="#C0BCAC" stroke="#1a1a1a" stroke-width="2.5"/>
  <!-- Chrome arm rest ends -->
  <rect x="522" y="685" width="44" height="14" rx="6" fill="#D4D0C0" stroke="#1a1a1a" stroke-width="2"/>
  <rect x="814" y="685" width="44" height="14" rx="6" fill="#D4D0C0" stroke="#1a1a1a" stroke-width="2"/>

  <!-- WAITING CHAIRS — right side wall -->
  <g stroke="#1a1a1a" stroke-width="2">
    <!-- Chair 1 -->
    <rect x="1400" y="680" width="120" height="120" rx="5" fill="#C8C4B4" stroke="#1a1a1a" stroke-width="2"/>
    <rect x="1400" y="600" width="120" height="82" rx="5" fill="#C8C4B4" stroke="#1a1a1a" stroke-width="2"/>
    <line x1="1435" y1="608" x2="1435" y2="678" stroke-width="1.5"/>
    <line x1="1480" y1="608" x2="1480" y2="678" stroke-width="1.5"/>
    <line x1="1408" y1="800" x2="1405" y2="855" stroke-linecap="round"/>
    <line x1="1510" y1="800" x2="1513" y2="855" stroke-linecap="round"/>
    <!-- Chair 2 -->
    <rect x="1560" y="680" width="120" height="120" rx="5" fill="#C8C4B4" stroke="#1a1a1a" stroke-width="2"/>
    <rect x="1560" y="600" width="120" height="82" rx="5" fill="#C8C4B4" stroke="#1a1a1a" stroke-width="2"/>
    <line x1="1595" y1="608" x2="1595" y2="678" stroke-width="1.5"/>
    <line x1="1640" y1="608" x2="1640" y2="678" stroke-width="1.5"/>
    <line x1="1568" y1="800" x2="1565" y2="855" stroke-linecap="round"/>
    <line x1="1670" y1="800" x2="1673" y2="855" stroke-linecap="round"/>
    <!-- Chair 3 -->
    <rect x="1720" y="680" width="80" height="120" rx="5" fill="#C8C4B4" stroke="#1a1a1a" stroke-width="2"/>
    <rect x="1720" y="600" width="80" height="82" rx="5" fill="#C8C4B4" stroke="#1a1a1a" stroke-width="2"/>
    <line x1="1748" y1="608" x2="1748" y2="678" stroke-width="1.5"/>
    <line x1="1776" y1="608" x2="1776" y2="678" stroke-width="1.5"/>
    <line x1="1728" y1="800" x2="1725" y2="855" stroke-linecap="round"/>
    <line x1="1792" y1="800" x2="1795" y2="855" stroke-linecap="round"/>
  </g>
  <!-- Side table between waiting chairs with magazine -->
  <rect x="1360" y="700" width="42" height="100" rx="3" fill="#C0BCAC" stroke="#1a1a1a" stroke-width="2"/>
  <rect x="1350" y="696" width="62" height="16" rx="3" fill="#C8C4B4" stroke="#1a1a1a" stroke-width="2"/>
  <rect x="1358" y="672" width="46" height="26" rx="2" fill="#E0DAC8" stroke="#1a1a1a" stroke-width="1.5"/>

  <!-- FRAMED PHOTOS / CERTIFICATES on right wall -->
  <!-- Frame 1 -->
  <rect x="1370" y="155" width="140" height="175" fill="#EDE8DC" stroke="#1a1a1a" stroke-width="2.5"/>
  <rect x="1380" y="165" width="120" height="155" fill="#D4CFC0" stroke="#1a1a1a" stroke-width="1.5"/>
  <!-- Certificate text lines -->
  <line x1="1390" y1="188" x2="1490" y2="188" stroke="#1a1a1a" stroke-width="1.5"/>
  <line x1="1390" y1="202" x2="1485" y2="202" stroke="#1a1a1a" stroke-width="1"/>
  <line x1="1390" y1="214" x2="1490" y2="214" stroke="#1a1a1a" stroke-width="1"/>
  <line x1="1390" y1="226" x2="1480" y2="226" stroke="#1a1a1a" stroke-width="1"/>
  <!-- Certificate seal -->
  <circle cx="1440" cy="282" r="26" fill="none" stroke="#1a1a1a" stroke-width="1.5"/>
  <circle cx="1440" cy="282" r="18" fill="none" stroke="#1a1a1a" stroke-width="1"/>

  <!-- Frame 2 (portrait-sized) -->
  <rect x="1548" y="148" width="130" height="160" fill="#EDE8DC" stroke="#1a1a1a" stroke-width="2.5"/>
  <rect x="1558" y="158" width="110" height="140" fill="#D4CFC0" stroke="#1a1a1a" stroke-width="1.5"/>
  <!-- Portrait shape (team photo / sports) -->
  <g fill="#C8C3B0" stroke="#1a1a1a" stroke-width="1">
    <ellipse cx="1590" cy="210" rx="16" ry="20"/>
    <ellipse cx="1630" cy="208" rx="16" ry="20"/>
    <ellipse cx="1613" cy="212" rx="14" ry="18"/>
    <!-- Uniform torsos -->
    <rect x="1575" y="228" width="30" height="55"/>
    <rect x="1615" y="225" width="30" height="58"/>
    <rect x="1600" y="229" width="26" height="54"/>
  </g>

  <!-- Frame 3 (smaller, award) -->
  <rect x="1710" y="155" width="100" height="130" fill="#EDE8DC" stroke="#1a1a1a" stroke-width="2.5"/>
  <rect x="1718" y="163" width="84" height="114" fill="#D4CFC0" stroke="#1a1a1a" stroke-width="1.5"/>
  <line x1="1727" y1="185" x2="1793" y2="185" stroke="#1a1a1a" stroke-width="1.5"/>
  <line x1="1727" y1="198" x2="1790" y2="198" stroke="#1a1a1a" stroke-width="1"/>
  <line x1="1727" y1="210" x2="1792" y2="210" stroke="#1a1a1a" stroke-width="1"/>
  <line x1="1727" y1="222" x2="1788" y2="222" stroke="#1a1a1a" stroke-width="1"/>
  <circle cx="1760" cy="252" r="22" fill="none" stroke="#1a1a1a" stroke-width="1.5"/>

  <!-- OVERHEAD LIGHT -->
  <line x1="690" y1="110" x2="690" y2="185" stroke="#1a1a1a" stroke-width="2" stroke-linecap="round"/>
  <path d="M658,185 Q690,210 722,185" fill="#F0EBE0" stroke="#1a1a1a" stroke-width="2" stroke-linecap="round"/>

  <line x1="1100" y1="110" x2="1100" y2="185" stroke="#1a1a1a" stroke-width="2" stroke-linecap="round"/>
  <path d="M1068,185 Q1100,210 1132,185" fill="#F0EBE0" stroke="#1a1a1a" stroke-width="2" stroke-linecap="round"/>
</svg>
